# Aspose.3D Wavefront OBJ Exporter
# Copyright 2004-2020 Aspose Pty Ltd.
# File created: 3/14/2021 11:51:06 PM


#
# object obj_4483669
#

v -30.66666603088378904 -35.83354949951171872 -5.53717041015625
v -30.66666603088378904 3.20043778419494628 -5.53717041015625
v -0.53333282470703128 3.20043778419494628 -5.53717041015625
v -0.53333282470703128 -56.28104400634765624 -5.53717041015625
v 29.60000038146972656 3.20043778419494628 -5.53717041015625
v 29.60000038146972656 -35.83354949951171872 -5.53717041015625
v -30.66666603088378904 42.23442840576171876 -5.53717041015625
v -0.53333282470703128 62.69371795654296872 -5.53717041015625
v 29.60000038146972656 42.23442840576171876 -5.53717041015625
v -30.66666603088378904 -35.83354949951171872 23.98280334472656256
v -0.53333282470703128 -56.28104400634765624 23.98280334472656256
v -0.53333282470703128 3.20043778419494628 23.98280334472656256
v -30.66666603088378904 3.20043778419494628 23.98280334472656256
v 29.60000038146972656 -35.83354949951171872 23.98280334472656256
v 29.60000038146972656 3.20043778419494628 23.98280334472656256
v -0.53333282470703128 62.69371795654296872 23.98280334472656256
v -30.66666603088378904 42.23442840576171876 23.98280334472656256
v 29.60000038146972656 42.23442840576171876 23.98280334472656256
v -0.53333282470703128 -89.65990447998046872 7.73333358764648432
v -47.57598876953125 -57.73830413818359376 7.73333358764648432
v 46.50932312011718752 -57.73830413818359376 7.73333358764648432
v 46.50932312011718752 3.19961047172546388 7.73333358764648432
v 46.50932312011718752 64.1375274658203125 7.73333358764648432
v -0.53333282470703128 96.07755279541015625 7.73333358764648432
v -47.57598876953125 64.1375274658203125 7.73333358764648432
v -47.57598876953125 3.19961047172546388 7.73333358764648432
# 26 vertices

vn 0 0 -1
vn 0 0 1
vn -0.2431684583425522 -0.35835570096969604 -0.90136027336120608
vn -0.24316836893558504 -0.35835564136505128 -0.90136027336120608
vn 0.2431684285402298 -0.35835564136505128 -0.90136027336120608
vn 0.2431683987379074 -0.35835570096969604 -0.90136027336120608
vn -0.2847207486629486 -0.41959109902381896 0.86190336942672736
vn -0.2847207486629486 -0.41959103941917416 0.86190336942672736
vn 0.28472071886062624 -0.41959103941917416 0.86190336942672736
vn 0.2847208082675934 -0.41959109902381896 0.86190336942672736
vn 0.61737871170043944 0 -0.78666609525680544
vn 0.6928982734680176 0 0.72103536128997808
vn 0.69289833307266232 0 0.72103530168533328
vn 0.24327099323272704 0.3583000898361206 -0.90135467052459712
vn 0.24327102303504944 0.3583000898361206 -0.90135467052459712
vn -0.24327100813388824 0.3583001494407654 -0.90135467052459712
vn -0.24327099323272704 0.3583000898361206 -0.90135467052459712
vn 0.28484022617340088 0.41952502727508544 0.86189603805542
vn 0.28484019637107848 0.41952508687973024 0.86189603805542
vn -0.28484022617340088 0.41952505707740784 0.86189603805542
vn -0.28484016656875612 0.41952502727508544 0.86189603805542
vn -0.61737871170043944 0 -0.78666609525680544
vn -0.6928982734680176 0 0.72103536128997808
vn -0.69289833307266232 0 0.72103530168533328
# 24 vertex normals

g obj_4483669
s 1
f 1//1 2//1 3//1
f 3//1 4//1 1//1
f 4//1 3//1 5//1
f 5//1 6//1 4//1
f 2//1 7//1 8//1
f 8//1 3//1 2//1
f 3//1 8//1 9//1
f 9//1 5//1 3//1
f 10//2 11//2 12//2
f 12//2 13//2 10//2
f 11//2 14//2 15//2
f 15//2 12//2 11//2
f 13//2 12//2 16//2
f 16//2 17//2 13//2
f 12//2 15//2 18//2
f 18//2 16//2 12//2
f 1//3 4//3 19//3
f 19//4 20//4 1//4
f 4//5 6//5 21//5
f 21//6 19//6 4//6
f 20//7 19//7 11//7
f 11//8 10//8 20//8
f 19//9 21//9 14//9
f 14//10 11//10 19//10
f 6//11 5//11 22//11
f 22//11 21//11 6//11
f 5//11 9//11 23//11
f 23//11 22//11 5//11
f 21//12 22//12 15//12
f 15//13 14//13 21//13
f 22//12 23//12 18//12
f 18//13 15//13 22//13
f 9//14 8//14 24//14
f 24//15 23//15 9//15
f 8//16 7//16 25//16
f 25//17 24//17 8//17
f 23//18 24//18 16//18
f 16//19 18//19 23//19
f 24//20 25//20 17//20
f 17//21 16//21 24//21
f 7//22 2//22 26//22
f 26//22 25//22 7//22
f 2//22 1//22 20//22
f 20//22 26//22 2//22
f 25//23 26//23 13//23
f 13//24 17//24 25//24
f 26//23 20//23 10//23
f 10//24 13//24 26//24
#48 polygons

